<svg xmlns="http://www.w3.org/2000/svg" xmlns:xlink="http://www.w3.org/1999/xlink" viewBox="0 0 485.82 480.85" xmlns:v="https://vecta.io/nano"><g fill="#201a0b"><path d="M458.84 391.79h-.01c-1.89.33-3.79.95-5.68.95-140.49.02-280.97 0-421.46-.05-1.6 0-3.2-.47-4.8-.72-6.29 1.56-10.44 3.01-11.13 9.05-.83 7.21 2.4 8.09 8.48 7.88 12.76-.44 12.77-.15 12.67 11.99-.01.17 0 .33 0 .5l-.09 53.98c-.04 4.05.96 5.49 5.27 5.47l129.94-.18 269.84.19c4.51.01 6.05-1.05 5.98-5.79l-.07-51.48V409.1l15.737-1.132c3.58-.257 6.353-3.237 6.353-6.826h0a7.01 7.01 0 0 0-3.846-6.252c-2.113-1.073-4.784-2.318-7.184-3.1h0z"/><path d="M171.83 464.83l-119.61-.1v-7.7h126.31c1.66 6.2-.91 7.82-6.7 7.8zm256.35-.29c-9.64.32-19.29.04-28.93.05-28.45.02-56.89-.07-85.33.27-5.99.08-8.54-1.4-6.7-8.07l121.8.16c1.26 0 2.5 2.36 3.75 3.62-1.53 1.39-3.02 3.91-4.59 3.97zm4.62-23.92H304.7v-16.86c-.22 0-.47 0-.73-.01l-2.54-.02c-.97 0-1.95-.01-2.92-.02l-4.53-.03-2.18-.02-.12.06-.82 1.12-.82.98-1.14 4.95c-.02 4.48-.29 8.99.05 13.45.15 1.93 1.55 3.76 3.58 5.24v13.4l-7.69 1.4-2.07.03-8.93.16-77.96-.23-1.16-.18c-.84-5.94-2.91-11.67 2.85-17.05 2.02-1.89.99-7.09 1.26-10.79.15-2.14.12-4.3.17-6.46l-.03-3.06-1.27-1.82-11.92-.25-1.47 15.9H52.76v-31.87l28.52-.01 99.43.04c1.68.01 3.35.81 5.03 1.23l22.23-1.22c.08-.04.17-.07.25-.11.09-.04.17-.08.25-.13l.5-.26c.34-.17.68-.3 1.01-.3l70.93-.03c1.02.01 2.04.61 3.06.94l19.04-.8 1.52.04c.03-.01.05-.01.07-.01.07-.01.09-.02.09-.02.15-.03.31-.06.47-.1l.73-.15h.01v-.01l15.27.12 45.81.36 61.08.6c1.59.02 4.48 2.06 4.53 3.24.38 9.44.21 18.89.21 28.56zm52.93-374.64c-.01-3.4-.57-6.8-.86-10.2l-.11-8.4-.91-22.75c-.03-.69-.21-1.36-.54-1.97l-1.42-2.6c-1.25-2.29-3.54-3.82-6.12-4.1-.02-.01-.05-.01-.07-.01l-3.85-.38-2.9-.29c-6.45-.43-12.84-.3-19.29-.3-140.05-.07-280.11-.05-420.17 0h-.11c-3.55 0-6.13-.46-9.55-.14-1.58 0-3.21.18-4.83.54-4.51.98-8.92 3.28-11.94 6.51-.72 1.59-1.99 3.16-2.07 4.79C.5 36.07.3 45.47 0 54.86l.36 2.04c.09 1.65.26 3.31.26 4.97l.07 217.28c0 19.48.72 39-.27 58.43-.65 12.58-1.98 24.54 9.5 33.3l2.98 7.88h13.09l365.04-.02 63.92.05c1.62.01 3.23 1.22 4.84 1.86l13.06-1.79 2.66-7.14c.82-1.18 1.38-2.83 2.51-3.46 6.38-3.6 7.8-9.49 7.8-16.08l-.09-286.2z"/><path d="M130.47 361.98l-20.37 1.06v-25.21h20.37v24.15z"/><use xlink:href="#B"/><path d="M376.61 361.7c-5.52 0-10.93.14-16.32-.14-.87-.04-2.08-1.86-2.36-3.04-.4-1.74-.11-3.63-.1-5.46.05-17.24.37-17.5 18.78-14.69v23.33zm93.32-262.5l-1.08 234.61.01 10.97c0 2.29.44 4.57.68 6.85-4.24 3.7-8.03 8.21-12.85 10.85-3.63 1.99-8.56 2.1-12.92 2.14-9.01.08-18.03-.46-27.05-.74l-14.93.73h-9.84v-9.82l-.16-21.46c-.04-9.06-6.55-13.57-16.44-11.35-1.11.25-2.21.73-3.32.76l-114.49 2.87c-35.1.49-70.21.34-105.3-.03-11.42-.12-22.81-1.89-34.22-2.79-3.37-.27-6.77-.13-10.15-.18l-8.99.18c-5.24 3.4-3.88 8.74-4 13.64l-.17 9.36v18.69h-25.9l-6.92.04-25.98-.11c-6.57.57-18.86-9.01-18.89-14.71l-.08-33.93.16-110.83-.04-131.19-.14-33.88c.03-5.48 3.06-8.01 8.5-7.99l52.35.14 58.04.79c1.39-.28 2.77-.81 4.16-.81l264.28-.1c.5 0 .99.08 1.49.12l4.17-.01 50.84.05c4.74.14 9.04 3.03 9.04 9.21l.07 31.93c.03.02.06.04.09.05l-.02 25.95h0z"/></g><path d="M471.85 15.57l-2.9-.29c-6.45-.43-12.84-.3-19.29-.3-140.05-.07-280.11-.05-420.17 0h-.11c-3.55 0-6.13-.46-9.55-.14-1.58 0-3.21.18-4.83.54 2.33-6.26 3.44-10.57 6.88-12.85.01-.01.02-.02.03-.01C23.82 1.25 26.46.61 30.4.61L429.87 0c.66 0 1.33.03 1.99.05l.82.01c8.05.25 16.15.07 24.15.87 7.96.8 14.71 2.73 15.02 14.64zm-12.06 365.08l-.96 11.14c-1.89.33-3.79.95-5.68.95-140.49.02-280.97 0-421.46-.05-1.6 0-3.2-.47-4.8-.72l-.9-13.21 365.04-.02 63.92.05c1.62.01 3.23 1.22 4.84 1.86z" fill="#317007"/><path d="M185.78 424.61l-1.47 15.9H52.76v-31.87l28.52-.01 99.43.04c1.68.01 3.35.81 5.03 1.23l.04 14.71zm247.02 16.01H304.7v-16.86l.02-.98c.07-5.27-.07-14.5-.18-14.74.02 0 .04-.01.06-.02.07-.01.09-.02.09-.02.15-.03.31-.06.47-.1l.74-.15 15.27.11 45.81.36 61.08.6c1.59.02 4.48 2.06 4.53 3.24.38 9.44.21 18.89.21 28.56zm-140.27 8.84v13.4l-7.69 1.4-2.07.03-8.93.16-77.96-.23-1.16-.18c-.84-5.94-2.91-11.67 2.85-17.05 2.02-1.89.99-7.09 1.26-10.79.15-2.14.12-4.3.17-6.46l-.03-3.06 37.77-.06 1.18.01 1.84-.01 4.11-.1 46.17-.7-1.14 4.95c-.02 4.48-.29 8.99.05 13.45.15 1.93 1.55 3.76 3.58 5.24z" fill="#7bafe3"/><path d="M291.8 423.66l-.12.06-.82 1.12-.82.98-46.17.7-4.11.1-1.84.01-1.18-.01-37.77.06-1.27-1.82.8-4.29h9.47v-11.88l.25-.12c.09-.04.17-.08.25-.13l.5-.26c.34-.17.68-.3 1.01-.3l70.93-.03c1.02.01 2.04.61 3.06.94 1.03 4.35-3.38 10.96 5.07 12.24l2.76 2.63z" fill="#f0e7e2"/><path d="M171.83 464.83l-119.61-.1v-7.7h126.31c1.66 6.2-.91 7.82-6.7 7.8zm260.94-4.26c-1.53 1.39-3.02 3.91-4.59 3.97-9.64.32-19.29.04-28.93.05-28.45.02-56.89-.07-85.33.27-5.99.08-8.54-1.4-6.7-8.07l121.8.16c1.26 0 2.5 2.36 3.75 3.62z" fill="#f9fafa"/><g fill="#a07545"><path d="M207.97 408.69v11.88h-9.47l-.8 4.29-11.92-.25-.04-14.71 22.23-1.21zm96.75 14.09l-.02.98c-.22 0-.47 0-.73-.01l-2.54-.02-2.92-.02-4.53-.03-2.18-.02-2.76-2.63c-8.45-1.28-4.04-7.89-5.07-12.24l19.04-.8 1.52.05h.01c.11.24.25 9.47.18 14.74z"/><path d="M304.53 408.03v.01l-1.52-.05 1.52.04z"/></g><g fill="#87b9c6"><path d="M427.76 37.85l-17.85-5.84-4.17.01-1.49-.12-264.28.1c-1.39 0-2.77.53-4.16.81l-58.04-.79c-11.09 4.14-22.41 7.78-33.2 12.59-8.29 3.68-12.63 10.86-12.59 20.25l.77 2.8 6.22 91.69 5.98 77.2c.06.79.47 1.55.72 2.32 2.06 30.36 5.26 60.71 5.73 91.09.26 16.7 11.45 22.03 23.29 22.93 4.11-.65 7.08.53 7.05 5.19-.03 4.4-.52 6.4-.52 6.4h13.49v-18.69l.17-9.36c.12-4.9-1.24-10.24 4-13.64l8.99-.18c3.38.05 6.78-.09 10.15.18 11.41.9 22.8 2.67 34.22 2.79l105.3.03 114.49-2.87c1.11-.03 2.21-.51 3.32-.76 9.89-2.22 16.4 2.29 16.44 11.35l.16 21.46v9.82h9.84l14.93-.73 4.07-12.09c3.56-.68 7.26-.96 10.66-2.12 6.58-2.25 10.81-6.54 11.28-14.06l4.09-58.42c.56-7.24 1.86-14.41 2.46-21.65.24-2.89-.49-5.86-.79-8.8l-28.94 2.01c-6.81.31-13.65.02-20.47.07-4.14.04-6.71-1.47-6.5-6.03-.26-12.48-1.26-25-.56-37.42.6-10.78 1.99-11.99 11.37-11.52 1.14.05 2.29-.13 3.45-.21l33.67-.89c2.29-.07 4.14.41 5.57 1.31l.07-7.67c.01-.14.01-.29.01-.44l.01-1.21v-.08l.01-1.4.02-1.61.02-1.83.02-2.97.09-8.88-.17.07-1.13.43c-.87.21-7.12.13-13.27.4l-1.5.08c-9.28.52-20.6 1.05-28.6-.12-.61.01-1.23.04-1.84.07-4.19.2-6.41-1.23-7.37-3.75-.47-1.19-.65-2.62-.63-4.23l.23-15.75c.14-7.52.39-15.03.87-22.53l.16-2.47c.16-2.26 4.31-5.97 6.74-6.07 14.3-.58 28.64-.35 42.96-.2.16 0 .31.02.47.04.05.01.09.01.14.02 1.2.16 2.12.57 2.81 1.18.76.67 1.26 1.57 1.58 2.62l-.18-1.92c1.05-5.84 2.48-11.64 3.08-17.52.97-9.65 1.36-19.36 2.12-29.04.1-1.21.95-2.36 1.45-3.54l.57-1.89c-2.06-15.92-13.73-21.8-27.06-26z"/><path d="M379.65 280.64c.05 10.3-4.14 15.82-13.01 17.91l-73.68.03c-.43-.01-.87-.01-1.31-.01l-78.66.01-91.37.11c-2.18-.01-4.35-1.29-6.52-1.98h-.01c-.73-.47-1.41-.96-2.05-1.48a19.44 19.44 0 0 1-1.76-1.61c-3.76-3.89-5.24-8.87-4.67-14.81v-9.03c-.06-2.98.18-136.39.17-168.18 0-13.75 6.99-20.91 20.7-20.9l180.9.1 49.47-.09c15.1-.09 21.83 6.53 21.86 21.65 0 2.16.08 4.33.12 6.49l-.82 79.97.64 91.82z"/></g><path d="M81.74 358.08c-.03 4.4-.52 6.4-.52 6.4l-12.41-.02-32.9-.05c-6.57.57-18.86-9.01-18.89-14.71l-.08-33.93.16-110.83-.04-131.19.93-.96c4.79-2.09 8.39-7.59 14.76-5.13l6.22 91.69 5.98 77.2c.06.79.47 1.55.72 2.32 2.06 30.36 5.26 60.71 5.73 91.09.26 16.7 11.45 22.03 23.29 22.93 4.11-.65 7.08.53 7.05 5.19zM469.93 99.2l-1.08 234.61.01 10.97c0 2.29.44 4.57.68 6.85-4.24 3.7-8.03 8.21-12.85 10.85-3.63 1.99-8.56 2.1-12.92 2.14-9.01.08-18.03-.46-27.05-.74l4.07-12.09c3.56-.68 7.26-.96 10.66-2.12 6.58-2.25 10.81-6.54 11.28-14.06l4.09-58.42c.56-7.24 1.86-14.41 2.46-21.65.24-2.89-.49-5.86-.79-8.8l1.16-45.14c.01-3.32-1.18-6.02-3.57-7.54l.07-7.67c.01-.14.01-.29.01-.44l.01-1.21v-.08l.01-1.4.02-1.61.02-1.83.02-2.97.09-8.88.01-.03c.67-.36 1.26-.85 1.74-1.43.77-.93 1.27-2.09 1.38-3.36l.19-2.18-.48-19.12-.44-13.01a86.08 86.08 0 0 0-.3-4.53v-.01l-.65-6.54-.18-1.92c1.05-5.84 2.48-11.64 3.08-17.52.97-9.65 1.36-19.36 2.12-29.04.1-1.21.95-2.36 1.45-3.54l.91.45 14.7 7.01.07 19.91v6.09z" fill="#b2e2ef"/><use xlink:href="#B" fill="#7eafbc"/><path d="M469.86 73.2l-14.7-7.01-.91-.45.57-1.89c-2.06-15.92-13.73-21.8-27.06-26l-17.85-5.84 50.84.05c4.74.14 9.04 3.03 9.04 9.21l.07 31.93zM77.77 32.02c-11.09 4.14-22.41 7.78-33.2 12.59-8.29 3.68-12.63 10.86-12.59 20.25l.77 2.8c-6.37-2.46-9.97 3.04-14.76 5.13l-.93.96-.14-33.88c.03-5.48 3.06-8.01 8.5-7.99l52.35.14z" fill="#f9fafa"/><path d="M130.47 337.83v24.15l-20.37 1.06v-25.21h20.37zm246.14.54v23.33c-5.52 0-10.93.14-16.32-.14-.87-.04-2.08-1.86-2.36-3.04-.4-1.74-.11-3.63-.1-5.46.05-17.24.37-17.5 18.78-14.69z" fill="#826173"/><g fill="#f0e7e2"><path d="M379.83 108.85l-.12-6.49c-.03-15.12-6.76-21.74-21.86-21.65l-49.47.09-180.9-.1c-13.71-.01-20.7 7.15-20.7 20.9l-.17 168.18v9.03c-.57 5.94.91 10.92 4.67 14.81a19.44 19.44 0 0 0 1.76 1.61c.64.51 1.33 1 2.06 1.47v.01c2.17.69 4.34 1.97 6.52 1.98l91.37-.11 78.66-.01 1.31.01 73.68-.03c8.87-2.09 13.06-7.61 13.01-17.91l-.64-91.82.82-79.97z"/><path d="M361.95 262.03c.58 6.52-2.3 10.58-8.2 12.83l-216.81.11c-10.37-3.23-13.1-6.9-13.04-17.93l.83-148.68c.05-8.29 3.04-11.68 11.31-11.71l118.8-.15 93.83.33c9.76.03 13.09 3.28 13.17 13.04l.11 152.16z"/></g><g fill="#201a0b"><path d="M449.17 141.85l-.44-13.01a86.08 86.08 0 0 0-.3-4.53v-.01l-.65-6.54c-.32-1.05-.82-1.95-1.58-2.62-.93-.49-1.87-1-2.81-1.18-.05-.01-.09-.01-.14-.02l-.47-.04c-14.32-.15-28.66-.38-42.96.2-2.43.1-6.58 3.81-6.74 6.07l-.16 2.47c-.48 7.5-.73 15.01-.87 22.53l-.23 15.75c-.02 1.61.16 3.04.63 4.23.96 2.52 3.18 3.95 7.37 3.75l1.84-.07c8 1.17 19.32.64 28.6.12l1.5-.08c6.15-.27 12.4-.19 13.27-.4l1.13-.43a1.62 1.62 0 0 0 .18-.1c.67-.36 1.26-.85 1.74-1.43.77-.93 1.27-2.09 1.38-3.36l.19-2.18-.48-19.12z"/><path d="M430.01 152.72l-1.47.04c-3.63.81-7.88.41-12.11.09-3.08 0-6.2-.02-9.43-.02v-23.69h13.43c4.92-.38 8.27-.91 10.43 0 1.48.61 2.4 1.91 2.87 4.38.61 3.23.46 8.47-.18 16.86-.04.86-2.28 2.3-3.54 2.34zm16.07 41.34c-1.43-.9-3.28-1.38-5.57-1.31l-33.67.89c-1.16.08-2.31.26-3.45.21-9.38-.47-10.77.74-11.37 11.52-.7 12.42.3 24.94.56 37.42-.21 4.56 2.36 6.07 6.5 6.03 6.82-.05 13.66.24 20.47-.07 9.66-.45 19.3-1.32 28.94-2.01l1.16-45.14c.01-3.32-1.18-6.02-3.57-7.54z"/><path d="m433.54,229.55c-.13,1.56-3.22,3.9-5.11,4.07-5.93.53-11.95.43-17.9.02-1.34-.09-3.54-2.37-3.61-3.74-.38-6.76-.18-13.57-.18-20.71h27.04c0,7.12.34,13.78-.24,20.36Z"/></g><g fill="#a07545"><path d="M361.84 109.87c-.08-9.76-3.41-13.01-13.17-13.04l-93.83-.33c-39.6-.03-79.2-.01-118.8.15-8.27.03-11.26 3.42-11.31 11.71l-.83 148.68c-.06 11.03 2.67 14.7 13.04 17.93l216.81-.11c5.9-2.25 8.78-6.31 8.2-12.83-.31-3.41-.09-150.5-.11-152.16z"/><path d="M346.95 255.66c-1.67.98-3.35 2.8-5.03 2.81l-198.16.13c-.31 0-.63-.16-1.88-.51V112.87c1.56-.33 3.12-.96 4.68-.96h195.49c1.58 0 3.15.59 4.73.9l.22 1.2v.01l-.03 2.62v3.35l-.01 2.66-.01 3.34.01 117.63v11.32c.09.18.2.34.26.52 0 .04-.17.13-.27.2h0z"/></g><path d="M433.55 150.38c-.04.86-2.28 2.3-3.54 2.34l-1.47.04c-3.63.81-7.88.41-12.11.09-3.08 0-6.2-.02-9.43-.02v-23.69h13.43c4.92-.38 8.27-.91 10.43 0 1.48.61 2.4 1.91 2.87 4.38.61 3.23.46 8.47-.18 16.86zm.235 58.806c0 7.122.331 13.784-.243 20.368-.136 1.555-3.221 3.892-5.111 4.062-5.93.532-11.954.435-17.904.028-1.339-.092-3.535-2.372-3.611-3.74-.375-6.768-.171-13.568-.171-20.718h27.04 0z" fill="#826173"/><g fill="#5d3a0d"><path d="M346.78 112.81c-1.58-.31-3.15-.9-4.73-.9-65.16-.05-130.32-.05-195.49 0-1.56 0-3.12.63-4.68.96v145.22c1.25.35 1.57.51 1.88.51l198.16-.13c1.68-.01 3.36-1.83 5.03-2.81a1.94 1.94 0 0 1 .01-.72v-11.32l-.01-117.63.01-3.34.01-2.66v-3.35l.03-2.62v-.01c-.08-.4-.15-.8-.22-1.2z"/><path d="m251.82,230.73c-30.38,5.97-54.43-19.58-53.15-46.04,1.24-25.65,19.96-45.46,44.51-45.09,25.52.39,44.98,17.89,43.66,47.39,2.37,27.81-19.15,40.62-35.02,43.74Z"/></g><path d="m347.22,255.46c0,.04-.17.13-.27.2-.04-.24-.04-.47.01-.72.09.18.2.34.26.52Z" fill="#b39279"/><g fill="#c10215"><path d="m286.84,186.99c1.32-29.5-18.14-47-43.66-47.39-24.55-.37-43.27,19.44-44.51,45.09-1.28,26.46,22.77,52.01,53.15,46.04,15.87-3.12,37.39-15.93,35.02-43.74Z"/><path d="m276.86,184.04c-1.25,23.74-12.7,35.93-35.99,36.28-17.72.26-30.9-17.63-31.35-35.72-.4-16.2,17.15-36.14,33.37-33.79,18.29-1.61,34.9,15.4,33.97,33.23Z"/></g><path d="m242.885,150.811c18.29-1.607,34.908,15.4,33.973,33.228-1.245,23.743-12.701,35.931-35.985,36.279-17.727.265-30.903-17.625-31.351-35.718-.401-16.196,17.148-36.14,33.362-33.789Z" fill="#f740bb"/><defs ><path id="B" d="M342.77 364.69h-6.35c-60.75.01-121.51-.06-182.26.17-6.58.03-9.15-1.89-8.39-8.48.42-3.59.08-7.27.08-11.43h14.06l8.89.01 9.11-.01 153.97-.33 1.98.34 6.88.01c.68.96 1.9 1.9 1.94 2.89.19 5.31.09 10.64.09 16.83z"/></defs></svg>